<mxfile host="app.diagrams.net" agent="Mozilla/5.0 (Windows NT 10.0; Win64; x64) AppleWebKit/537.36 (KHTML, like Gecko) Chrome/131.0.0.0 Safari/537.36 Edg/131.0.0.0" version="26.0.6" pages="2">
  <diagram name="Page-1" id="2KfSKzagt-H9lkBOi7nG">
    <mxGraphModel dx="983" dy="517" grid="0" gridSize="10" guides="1" tooltips="1" connect="1" arrows="1" fold="1" page="1" pageScale="1" pageWidth="850" pageHeight="1100" math="0" shadow="0">
      <root>
        <mxCell id="0" />
        <mxCell id="1" parent="0" />
        <mxCell id="HYfDQJVTTf4Tqtrrh-YE-16" style="edgeStyle=orthogonalEdgeStyle;rounded=0;orthogonalLoop=1;jettySize=auto;html=1;" parent="1" source="HYfDQJVTTf4Tqtrrh-YE-2" target="HYfDQJVTTf4Tqtrrh-YE-5" edge="1">
          <mxGeometry relative="1" as="geometry" />
        </mxCell>
        <mxCell id="HYfDQJVTTf4Tqtrrh-YE-2" value="start" style="ellipse;whiteSpace=wrap;html=1;" parent="1" vertex="1">
          <mxGeometry x="220" y="30" width="70" height="30" as="geometry" />
        </mxCell>
        <mxCell id="HYfDQJVTTf4Tqtrrh-YE-3" value="end" style="rounded=0;whiteSpace=wrap;html=1;" parent="1" vertex="1">
          <mxGeometry x="245" y="480" width="70" height="30" as="geometry" />
        </mxCell>
        <mxCell id="HYfDQJVTTf4Tqtrrh-YE-18" style="edgeStyle=orthogonalEdgeStyle;rounded=0;orthogonalLoop=1;jettySize=auto;html=1;entryX=0.5;entryY=0;entryDx=0;entryDy=0;" parent="1" source="HYfDQJVTTf4Tqtrrh-YE-5" target="HYfDQJVTTf4Tqtrrh-YE-6" edge="1">
          <mxGeometry relative="1" as="geometry">
            <Array as="points">
              <mxPoint x="255" y="140" />
              <mxPoint x="425" y="140" />
            </Array>
          </mxGeometry>
        </mxCell>
        <mxCell id="HYfDQJVTTf4Tqtrrh-YE-5" value="waitforInput" style="rounded=1;whiteSpace=wrap;html=1;" parent="1" vertex="1">
          <mxGeometry x="200" y="90" width="110" height="30" as="geometry" />
        </mxCell>
        <mxCell id="HYfDQJVTTf4Tqtrrh-YE-24" style="edgeStyle=orthogonalEdgeStyle;rounded=0;orthogonalLoop=1;jettySize=auto;html=1;entryX=0.5;entryY=0;entryDx=0;entryDy=0;" parent="1" source="HYfDQJVTTf4Tqtrrh-YE-7" target="HYfDQJVTTf4Tqtrrh-YE-3" edge="1">
          <mxGeometry relative="1" as="geometry" />
        </mxCell>
        <mxCell id="HYfDQJVTTf4Tqtrrh-YE-7" value="llmGeneration" style="rounded=1;whiteSpace=wrap;html=1;" parent="1" vertex="1">
          <mxGeometry x="225" y="430" width="110" height="30" as="geometry" />
        </mxCell>
        <mxCell id="hVEIs468KWUYcnS5dMG5-2" style="edgeStyle=orthogonalEdgeStyle;rounded=0;orthogonalLoop=1;jettySize=auto;html=1;entryX=0.5;entryY=0;entryDx=0;entryDy=0;" edge="1" parent="1" source="HYfDQJVTTf4Tqtrrh-YE-8" target="HYfDQJVTTf4Tqtrrh-YE-7">
          <mxGeometry relative="1" as="geometry">
            <Array as="points">
              <mxPoint x="165" y="370" />
              <mxPoint x="280" y="370" />
            </Array>
          </mxGeometry>
        </mxCell>
        <mxCell id="HYfDQJVTTf4Tqtrrh-YE-8" value="retrieve" style="rounded=1;whiteSpace=wrap;html=1;" parent="1" vertex="1">
          <mxGeometry x="110" y="320" width="110" height="30" as="geometry" />
        </mxCell>
        <mxCell id="HYfDQJVTTf4Tqtrrh-YE-14" value="" style="group" parent="1" vertex="1" connectable="0">
          <mxGeometry x="270" y="170" width="310" height="140" as="geometry" />
        </mxCell>
        <mxCell id="HYfDQJVTTf4Tqtrrh-YE-6" value="logAnalysis&lt;div&gt;&lt;br&gt;&lt;/div&gt;&lt;div&gt;&lt;br&gt;&lt;/div&gt;&lt;div&gt;&lt;br&gt;&lt;/div&gt;&lt;div&gt;&lt;br&gt;&lt;/div&gt;&lt;div&gt;&lt;br&gt;&lt;/div&gt;&lt;div&gt;&lt;br&gt;&lt;/div&gt;&lt;div&gt;&lt;br&gt;&lt;/div&gt;&lt;div&gt;&lt;br&gt;&lt;/div&gt;" style="rounded=1;whiteSpace=wrap;html=1;labelPosition=center;verticalLabelPosition=middle;align=center;verticalAlign=middle;movable=1;resizable=1;rotatable=1;deletable=1;editable=1;locked=0;connectable=1;" parent="HYfDQJVTTf4Tqtrrh-YE-14" vertex="1">
          <mxGeometry width="310" height="140" as="geometry" />
        </mxCell>
        <mxCell id="HYfDQJVTTf4Tqtrrh-YE-25" style="edgeStyle=orthogonalEdgeStyle;rounded=0;orthogonalLoop=1;jettySize=auto;html=1;entryX=0.5;entryY=0;entryDx=0;entryDy=0;" parent="HYfDQJVTTf4Tqtrrh-YE-14" source="HYfDQJVTTf4Tqtrrh-YE-9" target="HYfDQJVTTf4Tqtrrh-YE-13" edge="1">
          <mxGeometry relative="1" as="geometry">
            <Array as="points">
              <mxPoint x="55" y="87" />
              <mxPoint x="155" y="87" />
            </Array>
          </mxGeometry>
        </mxCell>
        <mxCell id="HYfDQJVTTf4Tqtrrh-YE-9" value="&lt;div&gt;&lt;span style=&quot;background-color: transparent; color: light-dark(rgb(0, 0, 0), rgb(255, 255, 255));&quot;&gt;GetInfoACID&lt;/span&gt;&lt;/div&gt;" style="rounded=1;whiteSpace=wrap;html=1;movable=1;resizable=1;rotatable=1;deletable=1;editable=1;locked=0;connectable=1;" parent="HYfDQJVTTf4Tqtrrh-YE-14" vertex="1">
          <mxGeometry x="10" y="45" width="90" height="30" as="geometry" />
        </mxCell>
        <mxCell id="HYfDQJVTTf4Tqtrrh-YE-26" style="edgeStyle=orthogonalEdgeStyle;rounded=0;orthogonalLoop=1;jettySize=auto;html=1;entryX=0.5;entryY=0;entryDx=0;entryDy=0;" parent="HYfDQJVTTf4Tqtrrh-YE-14" source="HYfDQJVTTf4Tqtrrh-YE-10" target="HYfDQJVTTf4Tqtrrh-YE-13" edge="1">
          <mxGeometry relative="1" as="geometry" />
        </mxCell>
        <mxCell id="HYfDQJVTTf4Tqtrrh-YE-10" value="&lt;div&gt;&lt;span style=&quot;background-color: transparent; color: light-dark(rgb(0, 0, 0), rgb(255, 255, 255));&quot;&gt;ParseErrorLog&lt;/span&gt;&lt;/div&gt;" style="rounded=1;whiteSpace=wrap;html=1;movable=1;resizable=1;rotatable=1;deletable=1;editable=1;locked=0;connectable=1;" parent="HYfDQJVTTf4Tqtrrh-YE-14" vertex="1">
          <mxGeometry x="110" y="45" width="90" height="30" as="geometry" />
        </mxCell>
        <mxCell id="HYfDQJVTTf4Tqtrrh-YE-27" style="edgeStyle=orthogonalEdgeStyle;rounded=0;orthogonalLoop=1;jettySize=auto;html=1;entryX=0.5;entryY=0;entryDx=0;entryDy=0;" parent="HYfDQJVTTf4Tqtrrh-YE-14" source="HYfDQJVTTf4Tqtrrh-YE-12" target="HYfDQJVTTf4Tqtrrh-YE-13" edge="1">
          <mxGeometry relative="1" as="geometry">
            <Array as="points">
              <mxPoint x="255" y="87" />
              <mxPoint x="155" y="87" />
            </Array>
          </mxGeometry>
        </mxCell>
        <mxCell id="HYfDQJVTTf4Tqtrrh-YE-12" value="&lt;div&gt;&lt;span style=&quot;background-color: transparent; color: light-dark(rgb(0, 0, 0), rgb(255, 255, 255));&quot;&gt;get_job_ci_poc&lt;/span&gt;&lt;/div&gt;" style="rounded=1;whiteSpace=wrap;html=1;movable=1;resizable=1;rotatable=1;deletable=1;editable=1;locked=0;connectable=1;" parent="HYfDQJVTTf4Tqtrrh-YE-14" vertex="1">
          <mxGeometry x="210" y="45" width="90" height="30" as="geometry" />
        </mxCell>
        <mxCell id="HYfDQJVTTf4Tqtrrh-YE-13" value="ConsolidateInfo" style="rounded=1;whiteSpace=wrap;html=1;movable=1;resizable=1;rotatable=1;deletable=1;editable=1;locked=0;connectable=1;" parent="HYfDQJVTTf4Tqtrrh-YE-14" vertex="1">
          <mxGeometry x="110" y="100" width="90" height="30" as="geometry" />
        </mxCell>
        <mxCell id="HYfDQJVTTf4Tqtrrh-YE-17" style="edgeStyle=orthogonalEdgeStyle;rounded=0;orthogonalLoop=1;jettySize=auto;html=1;entryX=0.427;entryY=-0.033;entryDx=0;entryDy=0;entryPerimeter=0;" parent="1" source="HYfDQJVTTf4Tqtrrh-YE-5" target="HYfDQJVTTf4Tqtrrh-YE-8" edge="1">
          <mxGeometry relative="1" as="geometry">
            <Array as="points">
              <mxPoint x="255" y="140" />
              <mxPoint x="157" y="140" />
            </Array>
          </mxGeometry>
        </mxCell>
        <mxCell id="HYfDQJVTTf4Tqtrrh-YE-22" value="no url" style="edgeLabel;html=1;align=center;verticalAlign=middle;resizable=0;points=[];" parent="HYfDQJVTTf4Tqtrrh-YE-17" vertex="1" connectable="0">
          <mxGeometry x="0.1582" y="5" relative="1" as="geometry">
            <mxPoint as="offset" />
          </mxGeometry>
        </mxCell>
        <mxCell id="HYfDQJVTTf4Tqtrrh-YE-21" style="edgeStyle=orthogonalEdgeStyle;rounded=0;orthogonalLoop=1;jettySize=auto;html=1;entryX=1;entryY=0.5;entryDx=0;entryDy=0;" parent="1" source="HYfDQJVTTf4Tqtrrh-YE-6" target="HYfDQJVTTf4Tqtrrh-YE-8" edge="1">
          <mxGeometry relative="1" as="geometry">
            <Array as="points">
              <mxPoint x="425" y="335" />
            </Array>
          </mxGeometry>
        </mxCell>
        <mxCell id="HYfDQJVTTf4Tqtrrh-YE-23" value="RAG" style="edgeLabel;html=1;align=center;verticalAlign=middle;resizable=0;points=[];" parent="HYfDQJVTTf4Tqtrrh-YE-21" vertex="1" connectable="0">
          <mxGeometry x="0.1217" y="-1" relative="1" as="geometry">
            <mxPoint as="offset" />
          </mxGeometry>
        </mxCell>
        <mxCell id="hVEIs468KWUYcnS5dMG5-1" style="edgeStyle=orthogonalEdgeStyle;rounded=0;orthogonalLoop=1;jettySize=auto;html=1;entryX=0.5;entryY=0;entryDx=0;entryDy=0;" edge="1" parent="1" source="HYfDQJVTTf4Tqtrrh-YE-6" target="HYfDQJVTTf4Tqtrrh-YE-7">
          <mxGeometry relative="1" as="geometry" />
        </mxCell>
      </root>
    </mxGraphModel>
  </diagram>
  <diagram id="JcN2B3zUSZ2rr4IqSIaq" name="Page-2">
    <mxGraphModel dx="2276" dy="1849" grid="1" gridSize="10" guides="1" tooltips="1" connect="1" arrows="1" fold="1" page="1" pageScale="1" pageWidth="850" pageHeight="1100" math="0" shadow="0">
      <root>
        <mxCell id="0" />
        <mxCell id="1" parent="0" />
        <mxCell id="s_hBS6ojJxhgFw00-XUI-15" style="edgeStyle=orthogonalEdgeStyle;rounded=0;orthogonalLoop=1;jettySize=auto;html=1;entryX=0;entryY=0.5;entryDx=0;entryDy=0;" edge="1" parent="1" source="W9dB_x1g_blKPgoSchfL-1" target="W9dB_x1g_blKPgoSchfL-10">
          <mxGeometry relative="1" as="geometry">
            <Array as="points">
              <mxPoint x="40" y="325" />
              <mxPoint x="40" y="200" />
            </Array>
          </mxGeometry>
        </mxCell>
        <mxCell id="s_hBS6ojJxhgFw00-XUI-16" style="edgeStyle=orthogonalEdgeStyle;rounded=0;orthogonalLoop=1;jettySize=auto;html=1;entryX=0;entryY=0.5;entryDx=0;entryDy=0;" edge="1" parent="1" source="W9dB_x1g_blKPgoSchfL-1" target="W9dB_x1g_blKPgoSchfL-11">
          <mxGeometry relative="1" as="geometry">
            <Array as="points">
              <mxPoint x="70" y="325" />
              <mxPoint x="70" y="450" />
            </Array>
          </mxGeometry>
        </mxCell>
        <mxCell id="s_hBS6ojJxhgFw00-XUI-17" style="edgeStyle=orthogonalEdgeStyle;rounded=0;orthogonalLoop=1;jettySize=auto;html=1;entryX=0;entryY=0.5;entryDx=0;entryDy=0;" edge="1" parent="1" source="W9dB_x1g_blKPgoSchfL-1" target="W9dB_x1g_blKPgoSchfL-4">
          <mxGeometry relative="1" as="geometry">
            <Array as="points">
              <mxPoint x="70" y="325" />
              <mxPoint x="70" y="530" />
            </Array>
          </mxGeometry>
        </mxCell>
        <mxCell id="W9dB_x1g_blKPgoSchfL-1" value="waitforInput" style="rounded=1;whiteSpace=wrap;html=1;fillColor=#1ba1e2;strokeColor=#006EAF;fontColor=#ffffff;" parent="1" vertex="1">
          <mxGeometry x="-180" y="310" width="110" height="30" as="geometry" />
        </mxCell>
        <mxCell id="W9dB_x1g_blKPgoSchfL-15" style="edgeStyle=orthogonalEdgeStyle;rounded=0;orthogonalLoop=1;jettySize=auto;html=1;entryX=0;entryY=0.5;entryDx=0;entryDy=0;" parent="1" source="W9dB_x1g_blKPgoSchfL-4" target="W9dB_x1g_blKPgoSchfL-12" edge="1">
          <mxGeometry relative="1" as="geometry" />
        </mxCell>
        <mxCell id="W9dB_x1g_blKPgoSchfL-4" value="&quot;SupplementContext&quot;:&lt;span style=&quot;color: rgb(42, 161, 152); background-color: rgb(0, 43, 54); font-family: Consolas, &amp;quot;Courier New&amp;quot;, monospace; font-size: 13px; white-space: pre;&quot;&gt;Invalid URL&lt;/span&gt;" style="rounded=1;whiteSpace=wrap;html=1;fillColor=#f8cecc;strokeColor=#b85450;" parent="1" vertex="1">
          <mxGeometry x="110" y="510" width="240" height="40" as="geometry" />
        </mxCell>
        <mxCell id="W9dB_x1g_blKPgoSchfL-21" style="edgeStyle=orthogonalEdgeStyle;rounded=0;orthogonalLoop=1;jettySize=auto;html=1;" parent="1" source="W9dB_x1g_blKPgoSchfL-10" target="W9dB_x1g_blKPgoSchfL-20" edge="1">
          <mxGeometry relative="1" as="geometry" />
        </mxCell>
        <mxCell id="W9dB_x1g_blKPgoSchfL-10" value="&quot;url&quot;: url.strip(&quot;\&quot;&quot;).strip(&quot;\&#39;&quot;).strip()" style="rounded=1;whiteSpace=wrap;html=1;fillColor=#d5e8d4;strokeColor=#82b366;" parent="1" vertex="1">
          <mxGeometry x="82" y="179" width="200" height="40" as="geometry" />
        </mxCell>
        <mxCell id="W9dB_x1g_blKPgoSchfL-14" style="edgeStyle=orthogonalEdgeStyle;rounded=0;orthogonalLoop=1;jettySize=auto;html=1;entryX=0;entryY=0.5;entryDx=0;entryDy=0;" parent="1" source="W9dB_x1g_blKPgoSchfL-11" target="W9dB_x1g_blKPgoSchfL-12" edge="1">
          <mxGeometry relative="1" as="geometry" />
        </mxCell>
        <mxCell id="W9dB_x1g_blKPgoSchfL-11" value="&quot;keyforRag&quot;:question" style="rounded=1;whiteSpace=wrap;html=1;fillColor=#d5e8d4;strokeColor=#82b366;" parent="1" vertex="1">
          <mxGeometry x="115" y="430" width="235" height="40" as="geometry" />
        </mxCell>
        <mxCell id="W9dB_x1g_blKPgoSchfL-18" style="edgeStyle=orthogonalEdgeStyle;rounded=0;orthogonalLoop=1;jettySize=auto;html=1;entryX=0;entryY=0.5;entryDx=0;entryDy=0;" parent="1" source="W9dB_x1g_blKPgoSchfL-12" target="W9dB_x1g_blKPgoSchfL-16" edge="1">
          <mxGeometry relative="1" as="geometry" />
        </mxCell>
        <mxCell id="W9dB_x1g_blKPgoSchfL-19" style="edgeStyle=orthogonalEdgeStyle;rounded=0;orthogonalLoop=1;jettySize=auto;html=1;entryX=0;entryY=0.5;entryDx=0;entryDy=0;" parent="1" source="W9dB_x1g_blKPgoSchfL-12" target="W9dB_x1g_blKPgoSchfL-17" edge="1">
          <mxGeometry relative="1" as="geometry" />
        </mxCell>
        <mxCell id="W9dB_x1g_blKPgoSchfL-12" value="retrieve" style="rounded=1;whiteSpace=wrap;html=1;" parent="1" vertex="1">
          <mxGeometry x="400" y="470" width="110" height="30" as="geometry" />
        </mxCell>
        <mxCell id="s_hBS6ojJxhgFw00-XUI-24" style="edgeStyle=orthogonalEdgeStyle;rounded=0;orthogonalLoop=1;jettySize=auto;html=1;" edge="1" parent="1" source="W9dB_x1g_blKPgoSchfL-16">
          <mxGeometry relative="1" as="geometry">
            <mxPoint x="890" y="450" as="targetPoint" />
          </mxGeometry>
        </mxCell>
        <mxCell id="W9dB_x1g_blKPgoSchfL-16" value="&quot;documents&quot;: documents,&amp;nbsp;&lt;br&gt;&lt;span style=&quot;background-color: transparent; color: light-dark(rgb(0, 0, 0), rgb(255, 255, 255));&quot;&gt;&quot;keyforRag&quot;: givenInput&lt;/span&gt;" style="rounded=1;whiteSpace=wrap;html=1;fillColor=#d5e8d4;strokeColor=#82b366;" parent="1" vertex="1">
          <mxGeometry x="630" y="430" width="170" height="40" as="geometry" />
        </mxCell>
        <mxCell id="W9dB_x1g_blKPgoSchfL-17" value="&quot;documents&quot;: [],&amp;nbsp;&lt;div&gt;&quot;keyforRag&quot;: &quot;&quot;&lt;/div&gt;" style="rounded=1;whiteSpace=wrap;html=1;fillColor=#f8cecc;strokeColor=#b85450;" parent="1" vertex="1">
          <mxGeometry x="630" y="510" width="170" height="40" as="geometry" />
        </mxCell>
        <mxCell id="s_hBS6ojJxhgFw00-XUI-6" style="edgeStyle=orthogonalEdgeStyle;rounded=0;orthogonalLoop=1;jettySize=auto;html=1;entryX=0;entryY=0.5;entryDx=0;entryDy=0;" edge="1" parent="1" source="W9dB_x1g_blKPgoSchfL-20" target="W9dB_x1g_blKPgoSchfL-29">
          <mxGeometry relative="1" as="geometry" />
        </mxCell>
        <mxCell id="s_hBS6ojJxhgFw00-XUI-7" style="edgeStyle=orthogonalEdgeStyle;rounded=0;orthogonalLoop=1;jettySize=auto;html=1;entryX=0;entryY=0.5;entryDx=0;entryDy=0;" edge="1" parent="1" source="W9dB_x1g_blKPgoSchfL-20" target="W9dB_x1g_blKPgoSchfL-28">
          <mxGeometry relative="1" as="geometry" />
        </mxCell>
        <mxCell id="s_hBS6ojJxhgFw00-XUI-8" style="edgeStyle=orthogonalEdgeStyle;rounded=0;orthogonalLoop=1;jettySize=auto;html=1;entryX=0;entryY=0.5;entryDx=0;entryDy=0;" edge="1" parent="1" source="W9dB_x1g_blKPgoSchfL-20" target="W9dB_x1g_blKPgoSchfL-27">
          <mxGeometry relative="1" as="geometry" />
        </mxCell>
        <mxCell id="W9dB_x1g_blKPgoSchfL-20" value="logAnalysis" style="rounded=1;whiteSpace=wrap;html=1;" parent="1" vertex="1">
          <mxGeometry x="342" y="184" width="110" height="30" as="geometry" />
        </mxCell>
        <mxCell id="W9dB_x1g_blKPgoSchfL-30" value="" style="group" parent="1" vertex="1" connectable="0">
          <mxGeometry x="502" y="139" width="250" height="120" as="geometry" />
        </mxCell>
        <mxCell id="W9dB_x1g_blKPgoSchfL-28" value="&lt;div&gt;ParseErrorLog&lt;/div&gt;&lt;div&gt;&lt;br&gt;&lt;/div&gt;&lt;div&gt;&lt;br&gt;&lt;/div&gt;&lt;div&gt;&lt;br&gt;&lt;/div&gt;&lt;div&gt;&lt;br&gt;&lt;/div&gt;&lt;div&gt;&lt;br&gt;&lt;/div&gt;&lt;div&gt;&lt;br&gt;&lt;/div&gt;&lt;div&gt;&lt;br&gt;&lt;/div&gt;" style="rounded=0;whiteSpace=wrap;html=1;" parent="W9dB_x1g_blKPgoSchfL-30" vertex="1">
          <mxGeometry width="250" height="120" as="geometry" />
        </mxCell>
        <mxCell id="W9dB_x1g_blKPgoSchfL-24" value="&quot;urlaccessibility&quot;: False" style="rounded=1;whiteSpace=wrap;html=1;fillColor=#f8cecc;strokeColor=#b85450;" parent="W9dB_x1g_blKPgoSchfL-30" vertex="1">
          <mxGeometry x="10" y="20" width="170" height="40" as="geometry" />
        </mxCell>
        <mxCell id="W9dB_x1g_blKPgoSchfL-25" value="&quot;urlaccessibility&quot;:True,&amp;nbsp;&lt;div&gt;&quot;errorLog&quot;:msg&lt;/div&gt;" style="rounded=1;whiteSpace=wrap;html=1;fillColor=#d5e8d4;strokeColor=#82b366;" parent="W9dB_x1g_blKPgoSchfL-30" vertex="1">
          <mxGeometry x="10" y="70" width="230" height="40" as="geometry" />
        </mxCell>
        <mxCell id="W9dB_x1g_blKPgoSchfL-31" value="" style="group" parent="1" vertex="1" connectable="0">
          <mxGeometry x="502" y="279" width="250" height="80" as="geometry" />
        </mxCell>
        <mxCell id="W9dB_x1g_blKPgoSchfL-27" value="&lt;div&gt;get_job_ci_poc&lt;/div&gt;&lt;div&gt;&lt;br&gt;&lt;/div&gt;&lt;div&gt;&lt;br&gt;&lt;/div&gt;&lt;div&gt;&lt;br&gt;&lt;/div&gt;" style="rounded=0;whiteSpace=wrap;html=1;" parent="W9dB_x1g_blKPgoSchfL-31" vertex="1">
          <mxGeometry width="250" height="80" as="geometry" />
        </mxCell>
        <mxCell id="W9dB_x1g_blKPgoSchfL-26" value="&quot;SupplementContext&quot;: [&quot;xxx&quot;]" style="rounded=1;whiteSpace=wrap;html=1;fillColor=#fff2cc;strokeColor=#d6b656;" parent="W9dB_x1g_blKPgoSchfL-31" vertex="1">
          <mxGeometry x="10" y="30" width="170" height="40" as="geometry" />
        </mxCell>
        <mxCell id="W9dB_x1g_blKPgoSchfL-32" value="" style="group;fillColor=#f8cecc;strokeColor=#b85450;" parent="1" vertex="1" connectable="0">
          <mxGeometry x="502" y="-1" width="250" height="120" as="geometry" />
        </mxCell>
        <mxCell id="W9dB_x1g_blKPgoSchfL-29" value="&lt;div&gt;GetInfoACID&lt;/div&gt;&lt;div&gt;&lt;br&gt;&lt;/div&gt;&lt;div&gt;&lt;br&gt;&lt;/div&gt;&lt;div&gt;&lt;br&gt;&lt;/div&gt;&lt;div&gt;&lt;br&gt;&lt;/div&gt;&lt;div&gt;&lt;br&gt;&lt;/div&gt;&lt;div&gt;&lt;br&gt;&lt;/div&gt;&lt;div&gt;&lt;br&gt;&lt;/div&gt;" style="rounded=0;whiteSpace=wrap;html=1;" parent="W9dB_x1g_blKPgoSchfL-32" vertex="1">
          <mxGeometry width="250" height="120" as="geometry" />
        </mxCell>
        <mxCell id="W9dB_x1g_blKPgoSchfL-22" value="&quot;acid_return&quot;: &quot;Success&quot;" style="rounded=1;whiteSpace=wrap;html=1;fillColor=#d5e8d4;strokeColor=#82b366;" parent="W9dB_x1g_blKPgoSchfL-32" vertex="1">
          <mxGeometry x="8" y="20" width="170" height="40" as="geometry" />
        </mxCell>
        <mxCell id="W9dB_x1g_blKPgoSchfL-23" value="&quot;acid_return&quot;: &quot;Error&quot;&lt;div&gt;&amp;nbsp;&quot;SupplementContext&quot;: [&quot;Invalid Jenkins&quot;]&amp;nbsp;&lt;/div&gt;" style="rounded=1;whiteSpace=wrap;html=1;fillColor=#f8cecc;strokeColor=#b85450;" parent="W9dB_x1g_blKPgoSchfL-32" vertex="1">
          <mxGeometry x="7" y="70" width="230" height="40" as="geometry" />
        </mxCell>
        <mxCell id="s_hBS6ojJxhgFw00-XUI-4" value="" style="group" vertex="1" connectable="0" parent="1">
          <mxGeometry x="830" y="148" width="180" height="90" as="geometry" />
        </mxCell>
        <mxCell id="s_hBS6ojJxhgFw00-XUI-18" style="edgeStyle=orthogonalEdgeStyle;rounded=0;orthogonalLoop=1;jettySize=auto;html=1;" edge="1" parent="s_hBS6ojJxhgFw00-XUI-4" source="W9dB_x1g_blKPgoSchfL-33">
          <mxGeometry relative="1" as="geometry">
            <mxPoint x="-730" y="302" as="targetPoint" />
            <Array as="points">
              <mxPoint x="90" y="232" />
              <mxPoint x="-761" y="232" />
            </Array>
          </mxGeometry>
        </mxCell>
        <mxCell id="W9dB_x1g_blKPgoSchfL-33" value="&lt;div&gt;&quot;keyforRag&quot;:RAGkey, &quot;SupplementContext&quot;: SupplementContext&lt;/div&gt;" style="rounded=1;whiteSpace=wrap;html=1;arcSize=6;" parent="s_hBS6ojJxhgFw00-XUI-4" vertex="1">
          <mxGeometry y="12.857142857142856" width="180" height="77.14285714285712" as="geometry" />
        </mxCell>
        <mxCell id="s_hBS6ojJxhgFw00-XUI-3" value="ConsolidateInfo" style="text;html=1;align=center;verticalAlign=middle;whiteSpace=wrap;rounded=0;" vertex="1" parent="s_hBS6ojJxhgFw00-XUI-4">
          <mxGeometry x="40" width="100" height="15.428571428571427" as="geometry" />
        </mxCell>
        <mxCell id="s_hBS6ojJxhgFw00-XUI-12" style="edgeStyle=orthogonalEdgeStyle;rounded=0;orthogonalLoop=1;jettySize=auto;html=1;entryX=0;entryY=0.5;entryDx=0;entryDy=0;" edge="1" parent="1" source="W9dB_x1g_blKPgoSchfL-29" target="W9dB_x1g_blKPgoSchfL-33">
          <mxGeometry relative="1" as="geometry" />
        </mxCell>
        <mxCell id="s_hBS6ojJxhgFw00-XUI-13" style="edgeStyle=orthogonalEdgeStyle;rounded=0;orthogonalLoop=1;jettySize=auto;html=1;entryX=0;entryY=0.5;entryDx=0;entryDy=0;" edge="1" parent="1" source="W9dB_x1g_blKPgoSchfL-28" target="W9dB_x1g_blKPgoSchfL-33">
          <mxGeometry relative="1" as="geometry" />
        </mxCell>
        <mxCell id="s_hBS6ojJxhgFw00-XUI-14" style="edgeStyle=orthogonalEdgeStyle;rounded=0;orthogonalLoop=1;jettySize=auto;html=1;entryX=0;entryY=0.5;entryDx=0;entryDy=0;" edge="1" parent="1" source="W9dB_x1g_blKPgoSchfL-27" target="W9dB_x1g_blKPgoSchfL-33">
          <mxGeometry relative="1" as="geometry" />
        </mxCell>
        <mxCell id="s_hBS6ojJxhgFw00-XUI-23" value="" style="group" vertex="1" connectable="0" parent="1">
          <mxGeometry x="920" y="400" width="130" height="160" as="geometry" />
        </mxCell>
        <mxCell id="s_hBS6ojJxhgFw00-XUI-22" value="LLMGeneration" style="rounded=0;whiteSpace=wrap;html=1;verticalAlign=top;" vertex="1" parent="s_hBS6ojJxhgFw00-XUI-23">
          <mxGeometry width="130" height="160" as="geometry" />
        </mxCell>
        <mxCell id="s_hBS6ojJxhgFw00-XUI-19" value="SupplementContext" style="rounded=0;whiteSpace=wrap;html=1;" vertex="1" parent="s_hBS6ojJxhgFw00-XUI-23">
          <mxGeometry x="10" y="80" width="110" height="30" as="geometry" />
        </mxCell>
        <mxCell id="s_hBS6ojJxhgFw00-XUI-20" value="question" style="rounded=0;whiteSpace=wrap;html=1;" vertex="1" parent="s_hBS6ojJxhgFw00-XUI-23">
          <mxGeometry x="10" y="40" width="110" height="30" as="geometry" />
        </mxCell>
        <mxCell id="s_hBS6ojJxhgFw00-XUI-21" value="documents" style="rounded=0;whiteSpace=wrap;html=1;" vertex="1" parent="s_hBS6ojJxhgFw00-XUI-23">
          <mxGeometry x="10" y="120" width="110" height="30" as="geometry" />
        </mxCell>
      </root>
    </mxGraphModel>
  </diagram>
</mxfile>
